<svg xmlns="http://www.w3.org/2000/svg" width="" height="93" viewBox="0 0 128.219 93">
  <g id="Grupo_4" data-name="Grupo 4" transform="translate(-100.861 -100.862)">
    <g id="Grupo_1" data-name="Grupo 1" transform="translate(100.861 159.46)">
      <path id="Caminho_1" data-name="Caminho 1" d="M102.343,233.886h-1.482v-2.53h7.25c2.964,0,5.038,1.824,5.038,4.879a4.2,4.2,0,0,1-2.69,4.263v.045a1.852,1.852,0,0,1,.8.821l1.573,3.123c.251.479.639.524,1.14.524h.3v2.531h-1.573c-1.208,0-1.732-.182-2.257-1.208l-2.075-4.081c-.342-.639-.684-.753-1.527-.753h-1.5v6.041h-2.987Zm5.358,5.062a2.265,2.265,0,0,0,2.393-2.554,2.228,2.228,0,0,0-2.348-2.508h-2.416v5.062Z" transform="translate(-100.861 -231.356)" fill="#112d4c"/>
      <path id="Caminho_2" data-name="Caminho 2" d="M138.853,240.9a6.093,6.093,0,1,1-6.361,6.087A6.1,6.1,0,0,1,138.853,240.9Zm0,9.711a3.629,3.629,0,1,0-3.442-3.624A3.46,3.46,0,0,0,138.853,250.612Z" transform="translate(-118.288 -236.615)" fill="#112d4c"/>
      <path id="Caminho_3" data-name="Caminho 3" d="M164.822,255.485A2.076,2.076,0,0,0,166.737,254l.388-.889-3.875-8.732a.546.546,0,0,0-.616-.41h-.342V241.51h1.915a1.413,1.413,0,0,1,1.528,1.094l2.28,5.814a11.411,11.411,0,0,1,.41,1.55h.046a14.049,14.049,0,0,1,.387-1.55l1.983-5.814a1.437,1.437,0,0,1,1.551-1.094h1.961v2.462h-.342a.581.581,0,0,0-.661.41l-4.172,10.51a4.4,4.4,0,0,1-4.195,3.032,4.3,4.3,0,0,1-2.941-1.186l1.117-2.052A2.506,2.506,0,0,0,164.822,255.485Z" transform="translate(-134.568 -236.95)" fill="#112d4c"/>
      <path id="Caminho_4" data-name="Caminho 4" d="M198.295,245.506h.365v-.091c0-1.665-.661-2.28-2.143-2.28-.524,0-1.55.136-1.55.775v.616h-2.69v-1.231c0-2.166,3.055-2.394,4.263-2.394,3.876,0,5.015,2.029,5.015,4.628v4.331a.457.457,0,0,0,.5.5h.912V252.8h-2.6c-1.071,0-1.481-.593-1.481-1.277,0-.3.022-.5.022-.5h-.045a3.786,3.786,0,0,1-3.511,2.052,3.673,3.673,0,0,1-3.967-3.625C191.387,245.8,196.4,245.506,198.295,245.506Zm-2.234,5.312c1.551,0,2.644-1.642,2.644-3.055v-.273h-.5c-1.5,0-3.9.2-3.9,1.824A1.551,1.551,0,0,0,196.061,250.818Z" transform="translate(-150.737 -236.615)" fill="#112d4c"/>
      <path id="Caminho_5" data-name="Caminho 5" d="M219.456,234.32a.446.446,0,0,0-.5-.5h-.912v-2.462H220.8c1.071,0,1.551.479,1.551,1.551V244.6a.456.456,0,0,0,.5.5h.889v2.439h-2.736c-1.094,0-1.551-.456-1.551-1.55Z" transform="translate(-165.423 -231.356)" fill="#112d4c"/>
      <path id="Caminho_6" data-name="Caminho 6" d="M245.519,233.886h-1.482v-2.53h7.249c2.964,0,5.038,1.824,5.038,4.879a4.2,4.2,0,0,1-2.69,4.263v.045a1.854,1.854,0,0,1,.8.821l1.573,3.123c.251.479.639.524,1.14.524h.3v2.531h-1.573c-1.209,0-1.733-.182-2.257-1.208l-2.075-4.081c-.342-.639-.684-.753-1.527-.753H248.5v6.041h-2.986Zm5.358,5.062a2.265,2.265,0,0,0,2.394-2.554,2.228,2.228,0,0,0-2.349-2.508H248.5v5.062Z" transform="translate(-179.745 -231.356)" fill="#112d4c"/>
      <path id="Caminho_7" data-name="Caminho 7" d="M282.029,240.9a6.093,6.093,0,1,1-6.361,6.087A6.1,6.1,0,0,1,282.029,240.9Zm0,9.711a3.629,3.629,0,1,0-3.442-3.624A3.46,3.46,0,0,0,282.029,250.612Z" transform="translate(-197.172 -236.615)" fill="#112d4c"/>
      <path id="Caminho_8" data-name="Caminho 8" d="M314,245.506h.365v-.091c0-1.665-.661-2.28-2.143-2.28-.524,0-1.55.136-1.55.775v.616h-2.69v-1.231c0-2.166,3.055-2.394,4.263-2.394,3.875,0,5.016,2.029,5.016,4.628v4.331a.456.456,0,0,0,.5.5h.912V252.8h-2.6c-1.071,0-1.482-.593-1.482-1.277,0-.3.022-.5.022-.5h-.045a3.785,3.785,0,0,1-3.511,2.052,3.673,3.673,0,0,1-3.967-3.625C307.1,245.8,312.111,245.506,314,245.506Zm-2.234,5.312c1.551,0,2.645-1.642,2.645-3.055v-.273h-.5c-1.5,0-3.9.2-3.9,1.824A1.551,1.551,0,0,0,311.768,250.818Z" transform="translate(-214.487 -236.615)" fill="#112d4c"/>
      <path id="Caminho_9" data-name="Caminho 9" d="M339.75,235.642c2.53,0,3.351,1.414,3.351,1.414h.046s-.023-.3-.023-.684V234.32a.446.446,0,0,0-.5-.5h-.913v-2.462h2.759c1.072,0,1.55.479,1.55,1.551V244.6a.457.457,0,0,0,.5.5h.89v2.439h-2.668c-1.049,0-1.436-.5-1.436-1.185v-.433h-.045a4,4,0,0,1-3.625,1.892c-3.146,0-5.174-2.485-5.174-6.087C334.462,238.036,336.673,235.642,339.75,235.642Zm3.442,6.064c0-1.8-.934-3.579-2.872-3.579-1.6,0-2.918,1.3-2.918,3.6,0,2.212,1.163,3.648,2.872,3.648C341.779,245.377,343.193,244.283,343.193,241.706Z" transform="translate(-229.565 -231.356)" fill="#112d4c"/>
      <path id="Caminho_10" data-name="Caminho 10" d="M367.052,249.109a5.2,5.2,0,0,0,3.465,1.71c.89,0,1.573-.365,1.573-1.14,0-1.642-6.132-1.619-6.132-5.38,0-2.326,2.1-3.4,4.514-3.4,1.573,0,4.081.525,4.081,2.417v1.208H372v-.57c0-.547-.82-.821-1.459-.821-1.025,0-1.732.365-1.732,1.049,0,1.823,6.178,1.458,6.178,5.334,0,2.189-1.938,3.556-4.468,3.556A6.377,6.377,0,0,1,365.684,251Z" transform="translate(-246.767 -236.615)" fill="#112d4c"/>
      <path id="Caminho_11" data-name="Caminho 11" d="M134.872,285.577a.294.294,0,0,0-.331-.33h-.646v-1.292h1.517c.676,0,.961.286.961.962v5.872a2.538,2.538,0,1,0,5.076-.015v-5.857c0-.676.3-.962.976-.962h1.5v1.292h-.646a.294.294,0,0,0-.33.33v5.272a4.043,4.043,0,0,1-8.08,0Z" transform="translate(-119.061 -260.336)" fill="#112d4c"/>
      <path id="Caminho_12" data-name="Caminho 12" d="M161.691,293.266h.646a.3.3,0,0,0,.33-.331v-8.981h1.367l4.716,6.713c.39.571.886,1.442.886,1.442h.031a14.364,14.364,0,0,1-.106-1.442v-5.751c0-.676.286-.962.976-.962h1.5v1.292h-.646a.294.294,0,0,0-.331.33v8.981h-1.351l-4.731-6.713c-.39-.57-.871-1.442-.871-1.442h-.029s.089.856.089,1.442V293.6c0,.676-.285.961-.961.961h-1.516Z" transform="translate(-134.376 -260.336)" fill="#112d4c"/>
      <path id="Caminho_13" data-name="Caminho 13" d="M190.757,293.266h1.036v-8.019h-1.036v-1.292h3.5v1.292H193.22v8.019h1.036v1.291h-3.5Z" transform="translate(-150.39 -260.336)" fill="#112d4c"/>
      <path id="Caminho_14" data-name="Caminho 14" d="M204.407,285.577a.433.433,0,0,0-.5-.33h-.21v-1.292h.841c.751,0,1.006.166,1.247.872l2.328,6.532c.2.571.4,1.457.4,1.457h.031a14,14,0,0,1,.406-1.457l2.328-6.532c.255-.706.5-.872,1.246-.872h.841v1.292h-.21c-.27,0-.405.061-.5.33l-3.334,8.981h-1.592Z" transform="translate(-157.522 -260.336)" fill="#112d4c"/>
      <path id="Caminho_15" data-name="Caminho 15" d="M231.235,285.247h-.976v-1.292h6.232c.676,0,.961.286.961.962v1.336h-1.366v-.676a.294.294,0,0,0-.33-.33h-3.019v3.319h3.71v1.292h-3.71v3.078a.3.3,0,0,0,.331.331h3.094a.3.3,0,0,0,.33-.331v-.676h1.382V293.6c0,.676-.286.961-.961.961H232.2c-.676,0-.961-.285-.961-.961Z" transform="translate(-172.154 -260.336)" fill="#112d4c"/>
      <path id="Caminho_16" data-name="Caminho 16" d="M253.579,285.247H252.6v-1.292h4.626a2.949,2.949,0,0,1,3.168,3.109,2.725,2.725,0,0,1-1.907,2.808v.031a1.153,1.153,0,0,1,.45.48l1.277,2.537c.15.316.39.346.75.346h.2v1.291h-.737c-.826,0-1.126-.1-1.472-.8l-1.441-2.853c-.27-.5-.465-.571-1.051-.571h-1.381v4.22h-1.5Zm3.454,3.8a1.727,1.727,0,0,0,1.817-1.923,1.683,1.683,0,0,0-1.787-1.877h-1.982v3.8Z" transform="translate(-184.464 -260.336)" fill="#112d4c"/>
      <path id="Caminho_17" data-name="Caminho 17" d="M277.37,291.874a3.856,3.856,0,0,0,2.658,1.277,1.65,1.65,0,0,0,1.818-1.577c0-2.223-5.122-1.877-5.122-5.181,0-1.592,1.4-2.838,3.394-2.838,1.126,0,3.019.511,3.019,1.952v.871h-1.382v-.5c0-.556-.8-.961-1.637-.961-1.142,0-1.862.63-1.862,1.427,0,2.147,5.107,1.667,5.107,5.151A3.087,3.087,0,0,1,280,294.517a4.742,4.742,0,0,1-3.515-1.577Z" transform="translate(-197.622 -260.115)" fill="#112d4c"/>
      <path id="Caminho_18" data-name="Caminho 18" d="M297.925,293.266h1.036v-8.019h-1.036v-1.292h3.5v1.292h-1.036v8.019h1.036v1.291h-3.5Z" transform="translate(-209.435 -260.336)" fill="#112d4c"/>
      <path id="Caminho_19" data-name="Caminho 19" d="M314.771,285.247h-2.133a.294.294,0,0,0-.331.33v.676h-1.336v-1.4c0-.675.225-.9.9-.9h7.3c.676,0,.9.226.9.9v1.4h-1.336v-.676a.294.294,0,0,0-.331-.33h-2.132v9.311h-1.5Z" transform="translate(-216.622 -260.336)" fill="#112d4c"/>
      <path id="Caminho_20" data-name="Caminho 20" d="M339.389,289.932l-2.688-4.31a.62.62,0,0,0-.645-.375h-.3v-1.292h.69a1.32,1.32,0,0,1,1.427.811l1.607,2.673c.346.586.647,1.186.647,1.186h.03s.285-.6.645-1.186l1.592-2.673a1.33,1.33,0,0,1,1.427-.811h.691v1.292h-.285a.639.639,0,0,0-.661.375l-2.674,4.31v4.626h-1.5Z" transform="translate(-230.277 -260.336)" fill="#112d4c"/>
    </g>
    <g id="Grupo_3" data-name="Grupo 3" transform="translate(116.773 100.862)">
      <g id="Grupo_2" data-name="Grupo 2" transform="translate(36.091 0)">
        <path id="Caminho_21" data-name="Caminho 21" d="M261.961,100.862v11.323H250.638V100.862H239.316v11.323H227.993V100.862H216.67v45.291h56.615V100.862Z" transform="translate(-216.67 -100.862)" fill="#112d4c"/>
      </g>
      <rect id="Retângulo_2" data-name="Retângulo 2" width="5.662" height="5.662" transform="translate(19.107 5.662)" fill="#24afcf"/>
      <rect id="Retângulo_3" data-name="Retângulo 3" width="5.662" height="5.662" transform="translate(13.445 0)" fill="#112d4c"/>
      <rect id="Retângulo_4" data-name="Retângulo 4" width="5.662" height="5.662" transform="translate(19.107 0)" fill="#0082b1"/>
      <rect id="Retângulo_5" data-name="Retângulo 5" width="5.662" height="5.66" transform="translate(13.445 11.324)" fill="#b30055"/>
      <rect id="Retângulo_6" data-name="Retângulo 6" width="5.662" height="5.66" transform="translate(19.107 11.324)" fill="#112d4c"/>
      <rect id="Retângulo_7" data-name="Retângulo 7" width="5.661" height="5.661" transform="translate(13.445 16.984)" fill="#112d4c"/>
      <rect id="Retângulo_8" data-name="Retângulo 8" width="5.662" height="5.661" transform="translate(19.107 16.984)" fill="#0082b1"/>
      <rect id="Retângulo_9" data-name="Retângulo 9" width="5.662" height="5.66" transform="translate(24.768 11.324)" fill="#24afcf"/>
      <rect id="Retângulo_10" data-name="Retângulo 10" width="5.661" height="5.66" transform="translate(0 11.324)" fill="#c4b800"/>
      <rect id="Retângulo_11" data-name="Retângulo 11" width="5.662" height="5.66" transform="translate(30.429 11.324)" fill="#112d4c"/>
      <rect id="Retângulo_12" data-name="Retângulo 12" width="5.661" height="5.66" transform="translate(36.091 11.324)" fill="#0082b1"/>
      <rect id="Retângulo_13" data-name="Retângulo 13" width="5.662" height="5.661" transform="translate(41.753 16.984)" fill="#24afcf"/>
      <rect id="Retângulo_14" data-name="Retângulo 14" width="5.661" height="5.66" transform="translate(36.091 33.969)" fill="#0082b1"/>
      <rect id="Retângulo_15" data-name="Retângulo 15" width="5.661" height="5.662" transform="translate(30.43 39.629)" fill="#0082b1"/>
      <rect id="Retângulo_16" data-name="Retângulo 16" width="5.661" height="5.66" transform="translate(30.43 33.969)" fill="#0082b1"/>
      <rect id="Retângulo_17" data-name="Retângulo 17" width="5.661" height="5.662" transform="translate(30.43 28.306)" fill="#24afcf"/>
      <rect id="Retângulo_18" data-name="Retângulo 18" width="5.661" height="5.661" transform="translate(36.091 22.645)" fill="#24afcf"/>
      <rect id="Retângulo_19" data-name="Retângulo 19" width="5.661" height="5.661" transform="translate(36.092 16.984)" fill="#0082b1"/>
      <rect id="Retângulo_20" data-name="Retângulo 20" width="5.662" height="5.661" transform="translate(30.429 22.645)" fill="#0082b1"/>
      <rect id="Retângulo_21" data-name="Retângulo 21" width="5.661" height="5.661" transform="translate(30.43 16.984)" fill="#24afcf"/>
      <rect id="Retângulo_22" data-name="Retângulo 22" width="5.662" height="5.661" transform="translate(19.107 22.645)" fill="#0082b1"/>
      <rect id="Retângulo_23" data-name="Retângulo 23" width="5.661" height="5.661" transform="translate(7.784 22.645)" fill="#37aaa1"/>
      <rect id="Retângulo_24" data-name="Retângulo 24" width="5.662" height="5.661" transform="translate(24.768 22.645)" fill="#24afcf"/>
      <rect id="Retângulo_25" data-name="Retângulo 25" width="5.662" height="5.662" transform="translate(13.445 28.306)" fill="#24afcf"/>
      <rect id="Retângulo_26" data-name="Retângulo 26" width="5.661" height="5.66" transform="translate(13.445 33.969)" fill="#112d4c"/>
      <rect id="Retângulo_27" data-name="Retângulo 27" width="5.662" height="5.66" transform="translate(19.107 33.969)" fill="#24afcf"/>
      <rect id="Retângulo_28" data-name="Retângulo 28" width="5.662" height="5.66" transform="translate(0 33.969)" fill="#e4442f"/>
      <rect id="Retângulo_29" data-name="Retângulo 29" width="5.662" height="5.662" transform="translate(24.768 28.306)" fill="#112d4c"/>
      <rect id="Retângulo_30" data-name="Retângulo 30" width="5.662" height="5.662" transform="translate(19.107 39.629)" fill="#112d4c"/>
      <rect id="Retângulo_31" data-name="Retângulo 31" width="5.662" height="5.662" transform="translate(24.768 39.629)" fill="#24afcf"/>
      <rect id="Retângulo_32" data-name="Retângulo 32" width="5.661" height="5.662" transform="translate(7.784 39.629)" fill="#4077bb"/>
      <rect id="Retângulo_33" data-name="Retângulo 33" width="5.662" height="5.662" transform="translate(47.413 28.306)" fill="#24afcf"/>
    </g>
  </g>
</svg>
