<svg xmlns="http://www.w3.org/2000/svg" width="" height="" viewBox="12 -18 125.219 85">
  <g id="Grupo_4" data-name="Grupo 4" transform="translate(-100.861 -100.862)">
    <g id="Grupo_3" data-name="Grupo 3" transform="translate(116.773 100.862)">
      <g id="Grupo_2" data-name="Grupo 2" transform="translate(36.091 0)">
        <path id="Caminho_21" data-name="Caminho 21" d="M261.961,100.862v11.323H250.638V100.862H239.316v11.323H227.993V100.862H216.67v45.291h56.615V100.862Z" transform="translate(-216.67 -100.862)" fill="#112d4c"/>
      </g>
      <rect id="Retângulo_2" data-name="Retângulo 2" width="5.662" height="5.662" transform="translate(19.107 5.662)" fill="#24afcf"/>
      <rect id="Retângulo_3" data-name="Retângulo 3" width="5.662" height="5.662" transform="translate(13.445 0)" fill="#112d4c"/>
      <rect id="Retângulo_4" data-name="Retângulo 4" width="5.662" height="5.662" transform="translate(19.107 0)" fill="#0082b1"/>
      <rect id="Retângulo_5" data-name="Retângulo 5" width="5.662" height="5.66" transform="translate(13.445 11.324)" fill="#b30055"/>
      <rect id="Retângulo_6" data-name="Retângulo 6" width="5.662" height="5.66" transform="translate(19.107 11.324)" fill="#112d4c"/>
      <rect id="Retângulo_7" data-name="Retângulo 7" width="5.661" height="5.661" transform="translate(13.445 16.984)" fill="#112d4c"/>
      <rect id="Retângulo_8" data-name="Retângulo 8" width="5.662" height="5.661" transform="translate(19.107 16.984)" fill="#0082b1"/>
      <rect id="Retângulo_9" data-name="Retângulo 9" width="5.662" height="5.66" transform="translate(24.768 11.324)" fill="#24afcf"/>
      <rect id="Retângulo_10" data-name="Retângulo 10" width="5.661" height="5.66" transform="translate(0 11.324)" fill="#c4b800"/>
      <rect id="Retângulo_11" data-name="Retângulo 11" width="5.662" height="5.66" transform="translate(30.429 11.324)" fill="#112d4c"/>
      <rect id="Retângulo_12" data-name="Retângulo 12" width="5.661" height="5.66" transform="translate(36.091 11.324)" fill="#0082b1"/>
      <rect id="Retângulo_13" data-name="Retângulo 13" width="5.662" height="5.661" transform="translate(41.753 16.984)" fill="#24afcf"/>
      <rect id="Retângulo_14" data-name="Retângulo 14" width="5.661" height="5.66" transform="translate(36.091 33.969)" fill="#0082b1"/>
      <rect id="Retângulo_15" data-name="Retângulo 15" width="5.661" height="5.662" transform="translate(30.43 39.629)" fill="#0082b1"/>
      <rect id="Retângulo_16" data-name="Retângulo 16" width="5.661" height="5.66" transform="translate(30.43 33.969)" fill="#0082b1"/>
      <rect id="Retângulo_17" data-name="Retângulo 17" width="5.661" height="5.662" transform="translate(30.43 28.306)" fill="#24afcf"/>
      <rect id="Retângulo_18" data-name="Retângulo 18" width="5.661" height="5.661" transform="translate(36.091 22.645)" fill="#24afcf"/>
      <rect id="Retângulo_19" data-name="Retângulo 19" width="5.661" height="5.661" transform="translate(36.092 16.984)" fill="#0082b1"/>
      <rect id="Retângulo_20" data-name="Retângulo 20" width="5.662" height="5.661" transform="translate(30.429 22.645)" fill="#0082b1"/>
      <rect id="Retângulo_21" data-name="Retângulo 21" width="5.661" height="5.661" transform="translate(30.43 16.984)" fill="#24afcf"/>
      <rect id="Retângulo_22" data-name="Retângulo 22" width="5.662" height="5.661" transform="translate(19.107 22.645)" fill="#0082b1"/>
      <rect id="Retângulo_23" data-name="Retângulo 23" width="5.661" height="5.661" transform="translate(7.784 22.645)" fill="#37aaa1"/>
      <rect id="Retângulo_24" data-name="Retângulo 24" width="5.662" height="5.661" transform="translate(24.768 22.645)" fill="#24afcf"/>
      <rect id="Retângulo_25" data-name="Retângulo 25" width="5.662" height="5.662" transform="translate(13.445 28.306)" fill="#24afcf"/>
      <rect id="Retângulo_26" data-name="Retângulo 26" width="5.661" height="5.66" transform="translate(13.445 33.969)" fill="#112d4c"/>
      <rect id="Retângulo_27" data-name="Retângulo 27" width="5.662" height="5.66" transform="translate(19.107 33.969)" fill="#24afcf"/>
      <rect id="Retângulo_28" data-name="Retângulo 28" width="5.662" height="5.66" transform="translate(0 33.969)" fill="#e4442f"/>
      <rect id="Retângulo_29" data-name="Retângulo 29" width="5.662" height="5.662" transform="translate(24.768 28.306)" fill="#112d4c"/>
      <rect id="Retângulo_30" data-name="Retângulo 30" width="5.662" height="5.662" transform="translate(19.107 39.629)" fill="#112d4c"/>
      <rect id="Retângulo_31" data-name="Retângulo 31" width="5.662" height="5.662" transform="translate(24.768 39.629)" fill="#24afcf"/>
      <rect id="Retângulo_32" data-name="Retângulo 32" width="5.661" height="5.662" transform="translate(7.784 39.629)" fill="#4077bb"/>
      <rect id="Retângulo_33" data-name="Retângulo 33" width="5.662" height="5.662" transform="translate(47.413 28.306)" fill="#24afcf"/>
    </g>
  </g>
</svg>
